<svg width="908" height="1517" viewBox="0 0 908 1517" fill="none" xmlns="http://www.w3.org/2000/svg">
<path d="M889.68 1464.37V1464.45C889.68 1483.76 874.027 1499.4 854.733 1499.4H52.8799C33.5733 1499.4 17.92 1483.76 17.92 1464.45V1464.37C17.92 1445.07 33.5733 1429.43 52.8799 1429.43H854.733C874.027 1429.43 889.68 1445.07 889.68 1464.37Z" fill="#242423"/>
<path d="M52.8799 1446.76C43.1599 1446.76 35.2666 1454.67 35.2666 1464.37C35.2666 1474.16 43.1599 1482.07 52.8799 1482.07H854.733C864.44 1482.07 872.347 1474.16 872.347 1464.44V1464.37C872.347 1454.67 864.44 1446.76 854.733 1446.76H52.8799ZM854.733 1516.75H52.8799C24.0399 1516.75 0.58667 1493.28 0.58667 1464.44C0.58667 1435.55 24.0399 1412.08 52.8799 1412.08H854.733C883.56 1412.08 907.026 1435.55 907.026 1464.37V1464.44C907.026 1493.28 883.56 1516.75 854.733 1516.75Z" fill="black"/>
<path d="M733.213 1139.99V1140.07C733.213 1159.36 717.56 1175.01 698.253 1175.01H209.413C190.106 1175.01 174.467 1159.36 174.467 1140.07V1139.99C174.467 1120.68 190.106 1105.04 209.413 1105.04H698.253C717.56 1105.04 733.213 1120.68 733.213 1139.99Z" fill="#242423"/>
<path d="M209.413 1122.37C199.707 1122.37 191.8 1130.28 191.8 1139.99C191.8 1149.77 199.707 1157.68 209.413 1157.68H698.253C707.973 1157.68 715.867 1149.77 715.867 1140.07V1139.99C715.867 1130.28 707.973 1122.37 698.253 1122.37H209.413ZM698.253 1192.36H209.413C180.587 1192.36 157.12 1168.89 157.12 1140.07C157.12 1111.15 180.587 1087.69 209.413 1087.69H698.253C727.093 1087.69 750.547 1111.15 750.547 1139.99V1140.07C750.547 1168.89 727.093 1192.36 698.253 1192.36Z" fill="black"/>
<path d="M581.387 573.827C581.387 593.107 565.707 608.773 546.427 608.773H361.173C341.893 608.773 326.213 593.107 326.213 573.827C326.213 564.187 330.173 555.441 336.48 549.134C342.306 543.307 350.28 539.494 359.093 539.001C359.787 538.867 360.48 538.867 361.173 538.867H546.427C547.12 538.867 547.813 538.867 548.506 539.001C566.826 540.041 581.387 555.227 581.387 573.827Z" fill="#242423"/>
<path d="M362.133 556.067C362 556.094 361.867 556.12 361.733 556.134C361.853 556.12 361.987 556.094 362.133 556.067ZM361.253 556.2C360.853 556.254 360.453 556.293 360.053 556.32C355.8 556.547 351.787 558.347 348.747 561.387C345.4 564.733 343.56 569.147 343.56 573.827C343.56 583.534 351.467 591.44 361.173 591.44H546.427C556.147 591.44 564.053 583.534 564.053 573.827C564.053 564.534 556.787 556.84 547.52 556.32C547.133 556.293 546.747 556.254 546.36 556.2H361.253ZM546.427 626.12H361.173C332.333 626.12 308.88 602.654 308.88 573.827C308.88 559.88 314.333 546.76 324.227 536.867C333.093 528 344.773 522.653 357.227 521.747C358.907 521.533 360.28 521.534 361.173 521.534H546.427C547.333 521.534 548.707 521.533 550.4 521.747C577.573 523.76 598.733 546.467 598.733 573.827C598.733 602.654 575.267 626.12 546.427 626.12Z" fill="black"/>
<path d="M822.973 1429.43H84.6933C63.3066 1429.43 46.5866 1410.33 50.1199 1389.24C66.3999 1292.21 136.493 1213.08 163.653 1185.51C170.253 1178.8 179.213 1175.01 188.613 1175.01H719.053C728.467 1175.01 737.427 1178.8 744.027 1185.51C771.187 1213.08 841.267 1292.21 857.547 1389.24C861.093 1410.33 844.36 1429.43 822.973 1429.43Z" fill="#242423"/>
<path d="M188.613 1192.36C183.853 1192.36 179.373 1194.24 176 1197.68C148.4 1225.69 82.5598 1300.72 67.2131 1392.11C66.1064 1398.72 69.1465 1403.48 71.0398 1405.73C74.4531 1409.77 79.4265 1412.08 84.6932 1412.08H822.973C828.24 1412.08 833.226 1409.77 836.626 1405.73C838.533 1403.48 841.56 1398.72 840.453 1392.11C825.107 1300.72 759.267 1225.69 731.667 1197.67C728.293 1194.24 723.813 1192.36 719.053 1192.36H188.613ZM822.973 1446.76H84.6932C69.2132 1446.76 54.5865 1439.97 44.5731 1428.15C34.7331 1416.51 30.5199 1401.28 33.0265 1386.36C49.9999 1285.23 121.387 1203.69 151.293 1173.33C161.24 1163.24 174.493 1157.68 188.613 1157.68H719.053C733.173 1157.68 746.427 1163.24 756.373 1173.33C786.28 1203.69 857.68 1285.23 874.653 1386.36C877.16 1401.28 872.947 1416.51 863.107 1428.15C853.093 1439.97 838.467 1446.76 822.973 1446.76Z" fill="black"/>
<path d="M630.973 1105.04H276.627C254.773 1105.04 238.267 1085.2 242.227 1063.76L320.947 637.347C324 620.773 338.427 608.773 355.28 608.773H552.32C569.173 608.773 583.6 620.773 586.653 637.347L665.373 1063.76C669.333 1085.2 652.827 1105.04 630.973 1105.04Z" fill="#242423"/>
<path d="M355.28 626.12C346.8 626.12 339.533 632.16 338 640.494L259.28 1066.92C258.333 1072.04 259.707 1077.31 263.067 1081.33C265.053 1083.71 269.44 1087.69 276.627 1087.69H630.973C638.16 1087.69 642.56 1083.71 644.533 1081.33C647.893 1077.31 649.267 1072.04 648.333 1066.91L569.6 640.507C568.067 632.16 560.8 626.12 552.32 626.12H355.28ZM630.973 1122.37H276.627C261.053 1122.37 246.387 1115.51 236.413 1103.52C226.453 1091.55 222.347 1075.91 225.173 1060.63L303.893 634.2C308.453 609.427 330.067 591.44 355.28 591.44H552.32C577.533 591.44 599.147 609.427 603.707 634.213L682.427 1060.61C685.253 1075.91 681.16 1091.55 671.187 1103.52C661.213 1115.51 646.56 1122.37 630.973 1122.37Z" fill="black"/>
<path d="M548.507 538.987H359.093C287.24 467.12 375.6 374.6 375.6 374.6L468.12 351.853L401.333 275.48L441.28 167.707L445.587 156.187H506.267C509.32 159.8 512.24 163.48 515.013 167.08C661.493 354.827 548.507 538.987 548.507 538.987Z" fill="#242423"/>
<path d="M456.933 382.187C456.933 382.187 385.707 456.773 433.12 519.52H373.933C309.373 454.96 388.76 371.84 388.76 371.84L471.88 351.4L411.88 282.8L447.773 185.973L451.627 175.627H506.16C508.893 178.867 511.507 182.174 514 185.4C515.373 187.147 516.747 188.96 518.053 190.706L515.933 196.306L480.04 293.134L540.053 361.747L456.933 382.187Z" fill="#141413"/>
<path d="M366.64 521.64H538.32C557.56 484.747 623 333.68 501.333 177.747C500.253 176.334 499.16 174.921 498.053 173.534L457.52 173.773L421.173 271.84L481.173 340.44C485.16 344.987 486.48 351.294 484.667 357.067C482.84 362.841 478.147 367.24 472.267 368.694L384.933 390.173C371.28 406.027 322.133 469.933 366.64 521.64ZM548.507 556.32H359.093C354.493 556.32 350.08 554.493 346.827 551.24C280.52 484.92 328.453 398.867 363.053 362.627C365.333 360.24 368.253 358.547 371.453 357.76L436.307 341.814L388.28 286.907C384.093 282.12 382.867 275.427 385.067 269.467L429.346 150.12C431.866 143.347 438.347 138.854 445.587 138.854H506.267C511.373 138.854 516.227 141.107 519.52 145C522.747 148.814 525.827 152.694 528.76 156.52C680.8 351.387 564.48 546.107 563.293 548.054C560.133 553.187 554.533 556.32 548.507 556.32Z" fill="black"/>
<path d="M557.107 96.8935C557.107 127.334 540.053 153.693 515.013 167.08C512.24 163.48 509.32 159.8 506.267 156.187H445.587L441.28 167.707C415.627 154.533 398 127.76 398 96.8935C398 52.9869 433.653 17.3336 477.56 17.3336C521.533 17.3336 557.107 52.9869 557.107 96.8935Z" fill="#242423"/>
<path d="M445.587 138.854H506.267C510.84 138.854 515.187 140.653 518.413 143.813C531.84 132.133 539.773 115.134 539.773 96.8937C539.773 62.587 511.867 34.6802 477.56 34.6802C443.253 34.6802 415.347 62.587 415.347 96.8937C415.347 114.467 422.64 130.787 435.093 142.387C438.04 140.147 441.707 138.854 445.587 138.854ZM441.28 185.04C438.56 185.04 435.84 184.4 433.36 183.134C400.853 166.427 380.667 133.4 380.667 96.8937C380.667 43.467 424.133 0.000466758 477.56 0.000466758C530.987 0.000466758 574.453 43.467 574.453 96.8937C574.453 132.707 554.813 165.467 523.187 182.373C515.693 186.373 506.427 184.374 501.267 177.654C500.213 176.28 499.147 174.907 498.053 173.534L457.52 173.773C455.8 178.413 452.16 182.08 447.547 183.88C445.52 184.653 443.4 185.04 441.28 185.04Z" fill="black"/>
<path d="M800.68 1414H696.547C713.987 1414 727.627 1398.37 724.733 1381.17C711.44 1302 654.28 1237.43 632.093 1214.96C626.72 1209.47 619.413 1206.41 611.72 1206.41H715.853C723.547 1206.41 730.853 1209.47 736.227 1214.96C758.413 1237.43 815.573 1302 828.867 1381.17C831.76 1398.37 818.12 1414 800.68 1414Z" fill="#474747"/>
<path d="M767.867 1246.44C766.827 1246.31 765.853 1246.25 764.8 1246.25H265.84C257.04 1246.25 248.56 1249.65 242.36 1255.77C219.52 1278.24 164.267 1338.29 141.947 1414H100.787C80.6934 1414 64.96 1396.59 68.2934 1377.41C83.56 1289.15 149.52 1217.17 175.027 1192.12C181.293 1186 189.707 1182.6 198.52 1182.6H697.48C706.347 1182.6 714.76 1186 720.96 1192.12C731.733 1202.72 749.667 1221.52 767.867 1246.44Z" fill="#141413"/>
<path d="M616.6 1083.45H543.093C563.04 1083.45 578.107 1065.35 574.493 1045.77L502.627 656.506C499.84 641.373 486.68 630.413 471.293 630.413H544.8C560.187 630.413 573.36 641.373 576.146 656.506L648.013 1045.77C651.613 1065.35 636.547 1083.45 616.6 1083.45Z" fill="#474747"/>
<path d="M585.96 691.8H426.773C411.147 691.8 397.773 702.92 394.947 718.28L326.853 1086.95H291.493C271.24 1086.95 255.933 1068.56 259.6 1048.69L332.573 653.413C335.413 638.04 348.787 626.92 364.4 626.92H547.067C562.693 626.92 576.067 638.04 578.893 653.413L585.96 691.8Z" fill="#141413"/>
</svg>
